<svg width="17" height="17" viewBox="0 0 17 17" fill="none" xmlns="http://www.w3.org/2000/svg">
<path d="M14.5808 0L2.41923 0C1.04615 0 0 1.04615 0 2.41923L0 14.5808C0 15.9538 1.04615 17 2.41923 17H14.5808C15.9538 17 17 15.9538 17 14.5808V2.41923C17 1.04615 15.9538 0 14.5808 0ZM8.5 13.6C11.3115 13.6 13.6 11.3769 13.6 8.69615C13.6 8.51712 13.59 8.32808 13.57 8.14078C13.5263 7.73185 13.8285 7.32308 14.2398 7.32308V7.32308C14.5726 7.32308 14.8423 7.59283 14.8423 7.92559V14.2538C14.8423 14.5808 14.5808 14.9077 14.1885 14.9077H2.81154C2.48462 14.9077 2.15769 14.6462 2.15769 14.2538L2.15769 7.9043C2.15769 7.54719 2.44719 7.25769 2.80431 7.25769V7.25769C3.2339 7.25769 3.54234 7.67059 3.49497 8.09757C3.47525 8.2753 3.46539 8.45304 3.46539 8.63077C3.4 11.3769 5.68846 13.6 8.5 13.6ZM8.5 11.6385C6.66923 11.6385 5.23077 10.2 5.23077 8.43462C5.23077 6.66923 6.66923 5.23077 8.5 5.23077C10.3308 5.23077 11.7692 6.66923 11.7692 8.43462C11.7692 10.2654 10.3308 11.6385 8.5 11.6385ZM14.7769 4.64231C14.7769 5.03461 14.45 5.36154 14.0577 5.36154H12.2269C11.8346 5.36154 11.5077 5.03461 11.5077 4.64231V2.87692C11.5077 2.48462 11.8346 2.15769 12.2269 2.15769H14.0577C14.45 2.15769 14.7769 2.48462 14.7769 2.87692V4.64231Z" fill="url(#paint0_linear_14_4)"/>
<defs>
<linearGradient id="paint0_linear_14_4" x1="0" y1="17" x2="17" y2="0" gradientUnits="userSpaceOnUse">
<stop stop-color="#FF8A17"/>
<stop offset="0.317708" stop-color="#D64763"/>
<stop offset="0.692708" stop-color="#B62A99"/>
<stop offset="1" stop-color="#B62A99"/>
</linearGradient>
</defs>
</svg>
