<svg width="194" height="194" viewBox="0 0 194 194" fill="none" xmlns="http://www.w3.org/2000/svg">
<path fill-rule="evenodd" clip-rule="evenodd" d="M171.319 34.6622C167.358 29.9448 162.956 25.61 158.176 21.7213L171.319 34.6622ZM152.161 17.2019C147.551 14.009 142.651 11.2054 137.508 8.83848L184.524 55.1332C182.077 50.0281 179.197 45.1703 175.932 40.6075L152.161 17.2019ZM125.165 4.1535C128.496 5.16252 131.751 6.34585 134.919 7.69289L185.71 57.7044C187.107 60.8532 188.341 64.0902 189.402 67.4048L125.165 4.1535ZM123.142 3.56473C120.495 2.8257 117.802 2.19613 115.069 1.68121L192.031 77.4626C191.474 74.738 190.803 72.0551 190.022 69.4189L123.142 3.56473ZM192.37 79.1993C192.803 81.5358 193.153 83.9017 193.416 86.2938L106.217 0.433555C108.614 0.659448 110.985 0.972525 113.327 1.36958L192.37 79.1993ZM98.2009 0.00859777C100.37 0.0349177 102.523 0.132459 104.656 0.298992L193.574 87.8531C193.774 89.9833 193.904 92.1335 193.963 94.3014L98.2009 0.00859777ZM193.314 108.599C193.533 106.757 193.701 104.9 193.816 103.028L89.4755 0.288842C87.606 0.432276 85.7513 0.628709 83.9129 0.876642L193.314 108.599ZM82.6668 1.05294C80.9095 1.31321 79.1676 1.62061 77.4423 1.97382L192.317 115.086C192.643 113.356 192.924 111.609 193.157 109.848L82.6668 1.05294ZM90.8062 0.195876C92.7783 0.0716047 94.7664 0.00626153 96.7687 0.00158691L193.992 95.7329C193.997 96.1551 194 96.5779 194 97.0013C194 98.5753 193.963 100.141 193.888 101.696L90.8062 0.195876ZM76.2689 2.22166C74.6091 2.58302 72.9653 2.98686 71.3384 3.432L190.954 121.212C191.374 119.579 191.752 117.929 192.088 116.263L76.2689 2.22166ZM65.5594 5.21018C67.0988 4.68303 68.6557 4.19352 70.2289 3.74274L190.661 122.327C190.234 123.907 189.769 125.471 189.266 127.019L65.5594 5.21018ZM188.915 128.077L64.5072 5.57733C63.0122 6.10869 61.5341 6.67568 60.0739 7.27728L187.285 132.536C187.863 131.067 188.407 129.58 188.915 128.077ZM179.794 147.566C180.57 146.299 181.317 145.012 182.035 143.708L48.9854 12.6993C47.6921 13.4375 46.4174 14.2046 45.1622 14.9997L179.794 147.566ZM186.882 133.542C186.299 134.975 185.682 136.391 185.034 137.788L54.8576 9.60948C56.245 8.93923 57.6507 8.30103 59.0739 7.69587L186.882 133.542ZM182.532 142.794C183.246 141.463 183.93 140.114 184.582 138.747L53.9059 10.0757C52.5496 10.7494 51.2112 11.454 49.8917 12.1884L182.532 142.794ZM176.25 152.948C175.409 154.136 174.543 155.305 173.651 156.453L36.3705 21.2798C37.505 20.3703 38.6604 19.4856 39.8359 18.6268L176.25 152.948ZM176.831 152.117L40.6578 18.0329C41.8517 17.1796 43.0657 16.3526 44.299 15.553L179.255 148.438C178.474 149.683 177.666 150.91 176.831 152.117ZM110.771 193.031C108.945 193.291 107.102 193.499 105.245 193.656L0.231105 90.2531C0.358897 88.3934 0.539106 86.5482 0.770266 84.7188L110.771 193.031ZM112.009 192.847L0.935196 83.478C1.17945 81.7269 1.47044 79.9909 1.80688 78.2711L117.201 191.895C115.487 192.258 113.756 192.576 112.009 192.847ZM118.368 191.64L2.04337 77.1008C2.38874 75.4444 2.77635 73.8035 3.20504 72.1794L123.27 190.402C121.653 190.856 120.018 191.269 118.368 191.64ZM0.149209 91.5757L103.924 193.758C101.967 193.896 99.9937 193.976 98.0062 193.996L0.00126127 97.4952C0.000441091 97.3307 3.05176e-05 97.166 3.05176e-05 97.0013C3.05176e-05 95.1806 0.0501924 93.3717 0.149209 91.5757ZM0.0185397 98.9154L96.5854 194C94.4355 193.991 92.3021 193.913 90.1873 193.766L0.350704 105.308C0.171573 103.196 0.0601257 101.064 0.0185397 98.9154ZM124.373 190.085L3.50462 71.0711C3.93969 69.499 4.41333 67.9429 4.92449 66.404L129.018 188.593C127.487 189.128 125.938 189.626 124.373 190.085ZM6.93469 60.9148C6.3485 62.3765 5.79687 63.8557 5.28079 65.3516L130.064 188.22C131.552 187.681 133.022 187.106 134.474 186.497L6.93469 60.9148ZM7.34281 59.9134C7.9332 58.4878 8.5566 57.0793 9.21206 55.6889L139.664 184.139C138.284 184.816 136.885 185.461 135.469 186.074L7.34281 59.9134ZM17.4859 41.4304C16.6452 42.6311 15.831 43.8517 15.0442 45.0914L150.17 178.144C151.397 177.338 152.605 176.505 153.793 175.646L17.4859 41.4304ZM21.3138 36.3279C22.2188 35.2004 23.1485 34.0935 24.102 33.0082L162.112 168.901C161.042 169.871 159.949 170.818 158.836 171.74L21.3138 36.3279ZM20.6884 37.1153L158.058 172.377C156.93 173.292 155.78 174.183 154.611 175.048L18.0713 40.6036C18.918 39.4207 19.7906 38.2577 20.6884 37.1153ZM149.311 178.701L14.5 45.9588C13.7182 47.2198 12.9645 48.5 12.2398 49.7985L145.507 181.021C146.794 180.276 148.062 179.502 149.311 178.701ZM144.605 181.536L11.7385 50.7082C11.0182 52.032 10.3278 53.3746 9.66823 54.7348L140.611 183.668C141.961 182.988 143.292 182.277 144.605 181.536ZM24.7667 32.2594C25.7291 31.1864 26.715 30.1349 27.7237 29.1058L165.959 165.219C164.945 166.244 163.909 167.246 162.851 168.225L24.7667 32.2594ZM31.5523 25.4073C30.4886 26.3802 29.4467 27.3765 28.4273 28.3953L166.658 164.505C167.661 163.47 168.641 162.413 169.598 161.335L31.5523 25.4073ZM32.2948 24.7351C33.3713 23.7705 34.4696 22.8296 35.5887 21.9133L173.029 157.245C172.13 158.378 171.206 159.491 170.259 160.582L32.2948 24.7351ZM0.494061 106.852L88.6407 193.646C86.2713 193.444 83.9261 193.156 81.6083 192.787L1.46165 113.87C1.0562 111.558 0.732636 109.218 0.494061 106.852ZM1.77839 115.585C2.29888 118.268 2.92992 120.911 3.66657 123.51L71.9368 190.732C74.5458 191.428 77.198 192.018 79.8886 192.497L1.77839 115.585ZM4.2502 125.488L69.9504 190.18C66.7041 189.239 63.5279 188.133 60.4316 186.872L7.70682 134.956C6.39688 131.878 5.24143 128.719 4.2502 125.488ZM16.3928 150.978C13.5195 146.695 10.9785 142.171 8.80653 137.442L57.9294 185.811C53.1672 183.713 48.6057 181.243 44.2817 178.438L16.3928 150.978ZM19.7887 155.725C25.3963 163.086 32.0327 169.622 39.4835 175.117L19.7887 155.725Z" fill="url(#paint0_linear_28_93)" fill-opacity="0.5"/>
<defs>
<linearGradient id="paint0_linear_28_93" x1="34.4606" y1="22.5496" x2="163.368" y2="171.028" gradientUnits="userSpaceOnUse">
<stop stop-color="#FF4702"/>
<stop offset="0.494792" stop-color="#0068FF"/>
<stop offset="1" stop-color="#1B1716"/>
</linearGradient>
</defs>
</svg>
